<svg width="45" height="36" viewBox="0 0 45 36" fill="none" xmlns="http://www.w3.org/2000/svg">
<path d="M13.845 0.059185L6.44917 1.90735e-05C2.89917 1.90735e-05 0 2.89919 0 6.50835V13.9042C0 17.4542 2.89917 20.3534 6.44917 20.3534H14.4958C13.9042 24.5542 11.1825 28.1042 7.33667 29.82C6.09417 30.2934 5.325 31.595 5.56167 32.8967C5.8575 34.1984 6.98167 35.145 8.3425 35.145C8.63833 35.145 8.99333 35.0859 9.34833 34.9675C16.9217 32.0092 20.3533 24.14 20.3533 17.5725V6.50835C20.3533 2.89919 17.4542 1.90735e-05 13.845 0.059185ZM37.9258 0.059185L30.53 1.90735e-05C26.9208 1.90735e-05 24.0217 2.89919 24.0217 6.50835V13.9042C24.0217 17.4542 26.9208 20.3534 30.53 20.3534H38.5175C37.9258 24.5542 35.2042 28.1042 31.3583 29.82C30.1158 30.2934 29.3467 31.595 29.6425 32.8967C29.8792 34.1984 31.0033 35.145 32.3642 35.145C32.7192 35.145 33.015 35.0859 33.37 34.9675C40.9433 32.0092 44.375 24.14 44.375 17.5725V6.50835C44.375 2.89919 41.4758 1.90735e-05 37.9258 0.059185ZM5.56167 13.9042V6.50835C5.56167 5.97585 5.97583 5.56169 6.44917 5.56169H13.845C14.3775 5.56169 14.7917 5.97585 14.7917 6.50835V14.7917H6.44917C5.97583 14.7917 5.56167 14.4367 5.56167 13.9042ZM29.5833 13.9042V6.50835C29.5833 5.97585 29.9975 5.56169 30.53 5.56169H37.9258C38.3992 5.56169 38.8133 5.97585 38.8133 6.50835V14.7917H30.53C29.9975 14.7917 29.5833 14.4367 29.5833 13.9042Z" fill="white"/>
</svg>
