<svg width="21" height="19" viewBox="0 0 21 19" fill="none" xmlns="http://www.w3.org/2000/svg">
<path d="M18.9583 3.39083H16.3367L13.26 0.2925C12.8483 -0.0974998 12.22 -0.0974998 11.8083 0.2925C11.4183 0.704166 11.4183 1.3325 11.8083 1.74417L13.455 3.39083H7.54L9.18667 1.74417C9.57667 1.3325 9.57667 0.704166 9.18667 0.2925C8.79667 -0.0974998 8.14667 -0.0974998 7.75667 0.2925L4.65833 3.39083H2.03667C0.91 3.39083 0 4.30083 0 5.4275V8.46083C0 9.02417 0.455 9.47917 1.01833 9.47917H1.495L2.49167 15.8925C2.68667 17.2792 3.87833 18.2975 5.28667 18.2758H15.73C17.1167 18.2975 18.3083 17.2792 18.5033 15.8925L19.5 9.47917H19.9767C20.54 9.47917 20.995 9.02417 20.995 8.46083V5.4275C20.995 4.30083 20.085 3.39083 18.9583 3.39083ZM2.03667 7.4425V5.4275H18.9583V7.4425H2.03667ZM17.4417 9.47917L16.51 15.5892C16.445 15.9792 16.12 16.2608 15.73 16.2608H5.28667C4.89667 16.2608 4.55 15.9792 4.50667 15.5892L3.55333 9.47917H17.4417ZM6.78167 13.8775V11.8625C6.78167 11.2992 7.23667 10.8442 7.8 10.8442C8.34167 10.8442 8.79667 11.2992 8.79667 11.8625V13.8775C8.79667 14.4408 8.34167 14.8958 7.8 14.8958C7.23667 14.8958 6.78167 14.4408 6.78167 13.8775ZM11.505 13.8775V11.8625C11.505 11.2992 11.96 10.8442 12.5233 10.8442C13.0867 10.8442 13.5417 11.2992 13.5417 11.8625V13.8775C13.5417 14.4408 13.0867 14.8958 12.5233 14.8958C11.96 14.8958 11.505 14.4408 11.505 13.8775Z" fill="#5B5858"/>
</svg>
